:SAMPLES-PER-SECOND 30
:FRAME-RANGE 1-668
:FULLY-SPECIFIED
:DEGREES
147
root  43.9891 40.0284 7.76487 -175.233 -27.8522 178.679
RightUpLeg  -9.92799 -9.09731 -6.47082
RightLeg  7.9043 -13.4038 0.364515
RightFoot  -6.01942 -0.536556 10.6317
RightToes  -1.33073e-015 0 -3.6325e-017
Spine  5.706 -0.686841 5.04983
Spine1  7.88868 -0.608934 0.379147
HEad  -14.6754 63.619 -22.2589
LeftShoulder1  1.77178 -1.28309 -30.9707
LeftArm  -34.3287 -10.2743 -14.1834
LeftForeArm  -4.93373 2.74994 -10.2676
LeftHand  -0.0201045 5.77237 2.56772
RightShoulder  8.45425 11.5587 49.1603
RightArm  -12.2454 2.49203 5.57905
RightForeArm  22.4002 7.07896 11.7238
RightHand  -0.599958 2.75276 -8.76231
LeftUpLeg  -4.57545 10.3374 8.28242
LeftLeg  2.77298 6.8933 -2.40638
LeftFoot  -0.0274952 0.913663 -9.20949
LeftToes  -2.73175e-012 1.00346e-010 -4.28452e-011
148
root  44.081 40.0092 7.55222 -175.085 -27.9358 178.456
RightUpLeg  -9.38922 -10.4965 -7.09329
RightLeg  7.77564 -14.6621 1.31869
RightFoot  -5.68626 -0.573791 10.8011
RightToes  -1.33073e-015 0 -3.6325e-017
Spine  5.57869 -0.527632 5.46435
Spine1  7.5533 -0.445165 0.458337
HEad  -13.6815 62.9484 -21.4383
LeftShoulder1  1.7584 -1.22505 -31.1426
LeftArm  -34.5777 -9.9 -13.9698
LeftForeArm  -5.17861 1.7376 -10.2834
LeftHand  -0.0220565 5.84796 1.93084
RightShoulder  8.2904 11.2238 49.3058
RightArm  -12.0424 1.95588 6.19452
RightForeArm  22.6075 6.09391 12.0362
RightHand  -0.60055 2.66576 -8.85928
LeftUpLeg  -4.20932 10.3138 8.37169
LeftLeg  2.36433 6.77421 -2.4143
LeftFoot  0.125232 0.947858 -9.4344
LeftToes  -2.73175e-012 1.00346e-010 -4.28452e-011
149
root  44.2407 39.9944 7.30016 -175.153 -27.8148 178.561
RightUpLeg  -9.45676 -10.4648 -6.68532
RightLeg  8.15579 -14.5436 1.50727
RightFoot  -4.79238 -0.559211 9.18338
RightToes  -1.33073e-015 0 -3.6325e-017
Spine  5.72649 -0.30012 6.23197
Spine1  6.97211 -0.118971 0.305892
HEad  -13.093 62.4518 -20.8652
LeftShoulder1  1.73327 -1.13286 -31.3401
LeftArm  -34.8693 -9.50295 -13.3611
LeftForeArm  -4.74908 0.612697 -10.3172
LeftHand  -0.0251054 5.81813 1.2446
RightShoulder  8.26998 11.0966 49.613
RightArm  -11.6331 1.53711 6.82654
RightForeArm  22.7771 4.89987 12.4215
RightHand  -0.585911 2.69105 -8.62387
LeftUpLeg  -3.78882 10.3788 8.85242
LeftLeg  2.07239 6.71091 -2.24029
LeftFoot  0.215181 0.99803 -9.85909
LeftToes  -2.73175e-012 1.00346e-010 -4.28452e-011
150
root  44.4417 39.9724 7.01789 -175.3 -27.7556 178.761
RightUpLeg  -9.96175 -9.88023 -5.78081
RightLeg  9.42343 -15.2666 0.748368
RightFoot  -4.13277 -0.46425 6.91389
RightToes  -1.33073e-015 0 -3.6325e-017
Spine  5.98834 -0.204625 7.08012
Spine1  6.28618 0.140276 -0.0907426
HEad  -12.6784 62.1824 -20.4743
LeftShoulder1  1.67756 -1.01393 -31.0879
LeftArm  -34.9905 -8.77451 -12.7973
LeftForeArm  -4.19532 -0.551612 -10.396
LeftHand  -0.0242565 5.64561 0.847295
RightShoulder  8.38722 11.1924 49.9858
RightArm  -10.5786 1.25209 7.70243
RightForeArm  22.9979 3.73219 12.8725
RightHand  -0.564714 2.7251 -8.28793
LeftUpLeg  -3.45241 10.3692 9.41071
LeftLeg  1.98087 6.68125 -1.88247
LeftFoot  0.270231 1.04831 -10.3069
LeftToes  -2.73175e-012 1.00346e-010 -4.28452e-011
151
root  44.6399 39.9366 6.72486 -175.538 -28.3413 178.845
RightUpLeg  -9.84541 -10.1252 -5.38376
RightLeg  10.383 -15.5872 0.667418
RightFoot  -4.45459 -0.391138 5.9897
RightToes  -1.33073e-015 0 -3.6325e-017
Spine  6.13366 -0.296215 7.50058
Spine1  5.78705 0.0524215 0.0388454
HEad  -12.2893 61.8489 -20.3113
LeftShoulder1  1.65546 -0.956261 -31.0717
LeftArm  -34.7976 -8.16152 -12.0269
LeftForeArm  -4.20507 -1.63964 -10.5894
LeftHand  -0.0234786 5.44667 0.469217
RightShoulder  8.38771 11.2163 49.9082
RightArm  -9.29773 1.13336 8.90602
RightForeArm  23.4511 2.72481 13.2788
RightHand  -0.552293 2.80726 -8.03526
LeftUpLeg  -3.2209 10.2135 9.84989
LeftLeg  2.10289 6.13865 -1.44337
LeftFoot  0.276304 1.09031 -10.7118
LeftToes  -2.73175e-012 1.00346e-010 -4.28452e-011
152
root  44.8295 39.8981 6.43273 -175.825 -29.2895 179.136
RightUpLeg  -9.3922 -10.3721 -4.98662
RightLeg  10.8374 -16.1759 0.973804
RightFoot  -5.09104 -0.346174 5.69971
RightToes  -1.33073e-015 0 -3.6325e-017
Spine  6.04104 -0.348024 8.08072
Spine1  5.46151 -0.0239147 0.272148
HEad  -11.6475 61.1712 -20.0235
LeftShoulder1  1.65966 -0.96167 -31.1212
LeftArm  -34.5838 -8.07333 -11.5009
LeftForeArm  -4.39573 -2.40958 -10.794
LeftHand  -0.0257203 5.47948 0.365775
RightShoulder  8.338 11.0852 50.0578
RightArm  -7.72127 0.959729 9.57078
RightForeArm  23.7052 2.53323 13.5678
RightHand  -0.553228 2.88476 -7.97842
LeftUpLeg  -3.22311 10.414 10.5756
LeftLeg  2.4303 4.91295 -1.23761
LeftFoot  0.162054 1.11407 -11.0457
LeftToes  -2.73175e-012 1.00346e-010 -4.28452e-011
153
root  45.0259 39.8746 6.14783 -176.135 -30.1451 179.512
RightUpLeg  -8.92614 -10.2491 -4.44179
RightLeg  11.0794 -17.2443 1.16591
RightFoot  -5.51634 -0.301643 5.18632
RightToes  -1.33073e-015 0 -3.6325e-017
Spine  6.09149 -0.275494 8.6398
Spine1  4.97881 0.0593604 0.422382
HEad  -11.1791 60.464 -19.5075
LeftShoulder1  1.64624 -0.942295 -30.98
LeftArm  -34.3101 -8.05811 -11.3517
LeftForeArm  -4.6997 -2.93676 -10.9729
LeftHand  -0.0267688 5.40801 0.215033
RightShoulder  8.23725 10.8484 50.2683
RightArm  -6.30111 0.761953 10.0867
RightForeArm  23.852 2.75543 13.7363
RightHand  -0.567579 3.08813 -7.99663
LeftUpLeg  -3.03093 10.6479 11.407
LeftLeg  2.27575 3.76969 -1.1108
LeftFoot  0.308477 1.17344 -11.4926
LeftToes  -2.73175e-012 1.00346e-010 -4.28452e-011
154
root  45.212 39.8558 5.87179 -176.454 -30.92 179.852
RightUpLeg  -8.45508 -9.85783 -3.83676
RightLeg  11.2287 -18.4072 1.1694
RightFoot  -5.90611 -0.263104 4.69267
RightToes  -1.33073e-015 0 -3.6325e-017
Spine  6.00712 -0.145018 8.93878
Spine1  4.75862 0.165706 0.651768
HEad  -11.07 59.8244 -19.0787
LeftShoulder1  1.60929 -0.869286 -30.7504
LeftArm  -34.1106 -8.28396 -11.3532
LeftForeArm  -5.73398 -2.86099 -11.0345
LeftHand  -0.0270765 5.2403 -0.275398
RightShoulder  8.27725 10.8537 50.4915
RightArm  -4.7154 0.571488 10.3911
RightForeArm  23.4351 3.24149 13.882
RightHand  -0.567775 3.03559 -8.04561
LeftUpLeg  -2.67457 11.0254 12.2755
LeftLeg  1.88298 2.65219 -1.18181
LeftFoot  0.515246 1.2324 -11.8667
LeftToes  -2.73175e-012 1.00346e-010 -4.28452e-011
155
root  45.3677 39.8291 5.61333 -176.788 -31.912 -179.795
RightUpLeg  -8.00955 -9.69395 -3.27859
RightLeg  11.514 -19.5114 1.13503
RightFoot  -6.43097 -0.233916 4.43216
RightToes  -1.33073e-015 0 -3.6325e-017
Spine  5.77995 -0.143232 9.10001
Spine1  4.60446 0.0914535 1.00043
HEad  -10.9152 59.3763 -18.379
LeftShoulder1  1.59479 -0.841993 -30.6466
LeftArm  -33.8804 -8.33417 -11.36
LeftForeArm  -7.33368 -2.70461 -11.0827
LeftHand  -0.0279284 5.17232 -0.938309
RightShoulder  8.27101 10.8221 50.5638
RightArm  -3.68374 0.721372 10.6261
RightForeArm  23.4603 3.41729 13.9907
RightHand  -0.565523 3.10779 -7.95147
LeftUpLeg  -2.56495 11.2038 12.9811
LeftLeg  1.7811 1.55466 -1.03278
LeftFoot  0.617455 1.2794 -12.2156
LeftToes  -2.73175e-012 1.00346e-010 -4.28452e-011
156
root  45.4949 39.7932 5.38159 -177.193 -33.0022 -179.479
RightUpLeg  -7.58935 -9.73857 -2.80356
RightLeg  12.0345 -20.6316 0.940584
RightFoot  -7.00442 -0.213799 4.38548
RightToes  -1.33073e-015 0 -3.6325e-017
Spine  5.64346 -0.222971 9.07313
Spine1  4.48502 -0.0783121 1.39847
HEad  -11.1349 58.7776 -18.0881
LeftShoulder1  1.60418 -0.859146 -30.7183
LeftArm  -33.4438 -8.38826 -11.2594
LeftForeArm  -8.04009 -2.19572 -11.1865
LeftHand  -0.0303019 5.28344 -1.11948
RightShoulder  8.24631 10.7612 50.6274
RightArm  -3.01938 0.922706 10.6795
RightForeArm  23.4376 3.83491 13.973
RightHand  -0.574792 3.1748 -8.01893
LeftUpLeg  -2.53811 11.1801 13.5192
LeftLeg  1.87731 0.493025 -0.724002
LeftFoot  0.577183 1.32434 -12.6808
LeftToes  -2.73175e-012 1.00346e-010 -4.28452e-011
157
root  45.6008 39.7587 5.18157 -177.568 -34.0382 -179.218
RightUpLeg  -7.2602 -9.87751 -2.36967
RightLeg  12.5906 -21.4691 0.674283
RightFoot  -7.51851 -0.191935 4.21708
RightToes  -1.33073e-015 0 -3.6325e-017
Spine  5.67044 -0.289002 8.81205
Spine1  4.19725 -0.257715 1.9038
HEad  -11.0123 58.1548 -17.7743
LeftShoulder1  1.60879 -0.860606 -30.8127
LeftArm  -32.9575 -8.10954 -11.413
LeftForeArm  -8.66757 -1.9401 -11.3108
LeftHand  -0.0307061 5.33191 -1.15469
RightShoulder  8.16168 10.592 50.7091
RightArm  -2.22725 1.08523 10.4526
RightForeArm  22.6228 4.81087 13.8314
RightHand  -0.599107 3.17733 -8.34496
LeftUpLeg  -2.56074 11.1019 13.9402
LeftLeg  2.02246 -0.48352 -0.429565
LeftFoot  0.497191 1.35244 -13.0299
LeftToes  -2.73175e-012 1.00346e-010 -4.28452e-011
158
root  45.6847 39.727 5.01533 -177.887 -34.9696 -178.938
RightUpLeg  -7.03175 -10.0984 -1.97434
RightLeg  13.1218 -22.2409 0.418609
RightFoot  -7.98359 -0.180186 4.29351
RightToes  -1.33073e-015 0 -3.6325e-017
Spine  5.64463 -0.337557 8.53013
Spine1  3.99833 -0.415271 2.36421
HEad  -11.1983 57.3995 -17.7382
LeftShoulder1  1.61095 -0.827868 -30.9916
LeftArm  -32.683 -7.63352 -11.6871
LeftForeArm  -8.80012 -1.77381 -11.323
LeftHand  -0.0212741 4.89785 -1.66947
RightShoulder  7.98608 10.2676 50.7875
RightArm  -1.81149 1.23338 10.1264
RightForeArm  21.9 6.12534 13.4583
RightHand  -0.639814 3.1662 -8.90499
LeftUpLeg  -2.6376 11.1458 14.386
LeftLeg  2.14573 -1.52488 -0.283341
LeftFoot  0.443391 1.3777 -13.3282
LeftToes  -2.73175e-012 1.00346e-010 -4.28452e-011
